<svg width="16" height="15" viewBox="0 0 16 15" fill="none" xmlns="http://www.w3.org/2000/svg">
<path d="M4.67462 15C5.50247 15 6.17358 14.3284 6.17358 13.5C6.17358 12.6716 5.50247 12 4.67462 12C3.84677 12 3.17566 12.6716 3.17566 13.5C3.17566 14.3284 3.84677 15 4.67462 15Z" fill="#A6A6A6"/>
<path d="M12.669 15C13.4969 15 14.168 14.3284 14.168 13.5C14.168 12.6716 13.4969 12 12.669 12C11.8412 12 11.17 12.6716 11.17 13.5C11.17 14.3284 11.8412 15 12.669 15Z" fill="#A6A6A6"/>
<path d="M15.1673 2H4.24491L3.8232 0H0.177734V2H2.20732L4.19095 11H15.1673V9H9.61218L15.1673 6.951V2Z" fill="#A6A6A6"/>
</svg>
